<svg xmlns="http://www.w3.org/2000/svg" xmlns:svg="http://www.w3.org/2000/svg" id="svg8" width="256" height="256" version="1.1" viewBox="0 0 67.733 67.733"><metadata id="metadata5"/><g id="layer1" transform="translate(0,-229.26663)"><path id="rect4570" fill="#fff" fill-opacity="1" stroke="none" stroke-dasharray="none" stroke-dashoffset="0" stroke-linecap="round" stroke-linejoin="round" stroke-miterlimit="4" stroke-opacity=".478" stroke-width="2.916" d="m 5.52254,229.35808 c -1.6787021,0 -3.0299629,1.25132 -3.0299629,2.80587 v 23.11472 h 8.2083039 l 3.297728,-5.78198 c 0.817798,-1.4346 2.988494,-1.55178 3.980761,-0.2149 l 5.494335,7.40316 9.432503,-17.14005 c 0.393412,-0.71425 1.18207,-1.1676 2.047848,-1.17716 0.793099,-0.009 1.536496,0.35683 1.973,0.97009 l 8.322301,11.68897 7.208337,-8.53972 c 0.862364,-1.0213 2.495692,-1.11279 3.484694,-0.19518 l 9.233637,8.57713 v -18.70508 c 0,-1.55455 -1.351261,-2.80587 -3.029963,-2.80587 z m 29.717758,15.44939 -9.392104,17.06754 c -0.80228,1.45735 -2.99558,1.59026 -3.996107,0.24216 l -5.530975,-7.45245 -2.15558,3.77828 c -0.403339,0.70709 -1.195894,1.14962 -2.059436,1.1499 H 2.4925771 v 9.55744 c 0,1.55455 1.3512608,2.80587 3.0299629,2.80587 h 56.623522 c 1.678702,0 3.029963,-1.25132 3.029963,-2.80587 v -12.169 l -1.555225,-1.44514 -9.116509,-8.46866 -7.581329,8.9817 c -0.981227,1.16155 -2.903558,1.08958 -3.780332,-0.14153 z" opacity="1"/><path id="path4574" fill="#fff" fill-opacity="1" fill-rule="evenodd" stroke="none" stroke-dasharray="none" stroke-dashoffset="0" stroke-linecap="round" stroke-linejoin="miter" stroke-miterlimit="4" stroke-opacity="1" stroke-width="4.666" d="m 2.6542969,274.27344 a 2.333005,2.333005 0 1 0 0,4.66601 H 65.013672 a 2.333005,2.333005 0 1 0 0,-4.66601 z" baseline-shift="baseline" clip-rule="nonzero" color="#000" color-interpolation="sRGB" color-interpolation-filters="linearRGB" color-rendering="auto" direction="ltr" display="inline" dominant-baseline="auto" enable-background="accumulate" font-family="sans-serif" font-size="medium" font-stretch="normal" font-style="normal" font-variant="normal" font-weight="normal" image-rendering="auto" letter-spacing="normal" opacity="1" overflow="visible" shape-rendering="auto" text-anchor="start" text-decoration="none" text-rendering="auto" vector-effect="none" visibility="visible" word-spacing="normal" writing-mode="lr-tb" style="line-height:normal;font-variant-ligatures:normal;font-variant-position:normal;font-variant-caps:normal;font-variant-numeric:normal;font-variant-alternates:normal;font-feature-settings:normal;text-indent:0;text-align:start;text-decoration-line:none;text-decoration-style:solid;text-decoration-color:#000;text-transform:none;text-orientation:mixed;white-space:normal;shape-padding:0;isolation:auto;mix-blend-mode:normal;solid-color:#000;solid-opacity:1"/><path id="path4574-6-75" fill="#fff" fill-opacity="1" fill-rule="evenodd" stroke="none" stroke-dasharray="none" stroke-dashoffset="0" stroke-linecap="round" stroke-linejoin="miter" stroke-miterlimit="4" stroke-opacity="1" stroke-width="4.666" d="m 33.798828,274.41992 a 2.3329888,2.3329888 0 0 0 -2.296875,2.36524 v 17.86523 a 2.333008,2.333008 0 1 0 4.666016,0 v -17.86523 a 2.3329888,2.3329888 0 0 0 -2.369141,-2.36524 z" baseline-shift="baseline" clip-rule="nonzero" color="#000" color-interpolation="sRGB" color-interpolation-filters="linearRGB" color-rendering="auto" direction="ltr" display="inline" dominant-baseline="auto" enable-background="accumulate" font-family="sans-serif" font-size="medium" font-stretch="normal" font-style="normal" font-variant="normal" font-weight="normal" image-rendering="auto" letter-spacing="normal" opacity="1" overflow="visible" shape-rendering="auto" text-anchor="start" text-decoration="none" text-rendering="auto" vector-effect="none" visibility="visible" word-spacing="normal" writing-mode="lr-tb" style="line-height:normal;font-variant-ligatures:normal;font-variant-position:normal;font-variant-caps:normal;font-variant-numeric:normal;font-variant-alternates:normal;font-feature-settings:normal;text-indent:0;text-align:start;text-decoration-line:none;text-decoration-style:solid;text-decoration-color:#000;text-transform:none;text-orientation:mixed;white-space:normal;shape-padding:0;isolation:auto;mix-blend-mode:normal;solid-color:#000;solid-opacity:1"/><path id="path4574-6-75-1" fill="#fff" fill-opacity="1" fill-rule="evenodd" stroke="none" stroke-dasharray="none" stroke-dashoffset="0" stroke-linecap="round" stroke-linejoin="miter" stroke-miterlimit="4" stroke-opacity="1" stroke-width="4.666" d="m 23.949219,274.42383 a 2.3329888,2.3329888 0 0 0 -2.060547,1.18555 l -10.425781,17.86523 a 2.3329888,2.3329888 0 1 0 4.029297,2.35156 l 10.425781,-17.86523 a 2.3329888,2.3329888 0 0 0 -1.96875,-3.53711 z" baseline-shift="baseline" clip-rule="nonzero" color="#000" color-interpolation="sRGB" color-interpolation-filters="linearRGB" color-rendering="auto" direction="ltr" display="inline" dominant-baseline="auto" enable-background="accumulate" font-family="sans-serif" font-size="medium" font-stretch="normal" font-style="normal" font-variant="normal" font-weight="normal" image-rendering="auto" letter-spacing="normal" opacity="1" overflow="visible" shape-rendering="auto" text-anchor="start" text-decoration="none" text-rendering="auto" vector-effect="none" visibility="visible" word-spacing="normal" writing-mode="lr-tb" style="line-height:normal;font-variant-ligatures:normal;font-variant-position:normal;font-variant-caps:normal;font-variant-numeric:normal;font-variant-alternates:normal;font-feature-settings:normal;text-indent:0;text-align:start;text-decoration-line:none;text-decoration-style:solid;text-decoration-color:#000;text-transform:none;text-orientation:mixed;white-space:normal;shape-padding:0;isolation:auto;mix-blend-mode:normal;solid-color:#000;solid-opacity:1"/><path id="path4574-6-75-4" fill="#fff" fill-opacity="1" fill-rule="evenodd" stroke="none" stroke-dasharray="none" stroke-dashoffset="0" stroke-linecap="round" stroke-linejoin="miter" stroke-miterlimit="4" stroke-opacity="1" stroke-width="4.666" d="m 43.648438,274.42578 a 2.3329888,2.3329888 0 0 0 -1.896485,3.53516 l 10.425781,17.86523 a 2.3329888,2.3329888 0 1 0 4.029297,-2.35156 L 45.78125,275.60938 a 2.3329888,2.3329888 0 0 0 -2.132812,-1.1836 z" baseline-shift="baseline" clip-rule="nonzero" color="#000" color-interpolation="sRGB" color-interpolation-filters="linearRGB" color-rendering="auto" direction="ltr" display="inline" dominant-baseline="auto" enable-background="accumulate" font-family="sans-serif" font-size="medium" font-stretch="normal" font-style="normal" font-variant="normal" font-weight="normal" image-rendering="auto" letter-spacing="normal" opacity="1" overflow="visible" shape-rendering="auto" text-anchor="start" text-decoration="none" text-rendering="auto" vector-effect="none" visibility="visible" word-spacing="normal" writing-mode="lr-tb" style="line-height:normal;font-variant-ligatures:normal;font-variant-position:normal;font-variant-caps:normal;font-variant-numeric:normal;font-variant-alternates:normal;font-feature-settings:normal;text-indent:0;text-align:start;text-decoration-line:none;text-decoration-style:solid;text-decoration-color:#000;text-transform:none;text-orientation:mixed;white-space:normal;shape-padding:0;isolation:auto;mix-blend-mode:normal;solid-color:#000;solid-opacity:1"/></g></svg>