<svg xmlns="http://www.w3.org/2000/svg" width="32" height="32" viewBox="0 0 128 128"><defs><filter id="a" color-interpolation-filters="sRGB"><feFlood flood-color="#000" flood-opacity=".498" result="flood"/><feComposite in="flood" in2="SourceGraphic" operator="in" result="composite1"/><feGaussianBlur in="composite1" result="blur" stdDeviation=".2"/><feOffset dx="1" dy="1" result="offset"/><feComposite in="SourceGraphic" in2="offset" result="composite2"/></filter></defs><g fill="#fff" filter="url(#a)" transform="matrix(2.8 0 0 2.8 -90 -305)"><path d="M64.697 153.552l-8.352-.05-4.133-7.257 4.218-7.208 8.352.049 4.134 7.257z"/><path d="M52.632 146.553l-8.352-.049-4.133-7.257 4.218-7.209 8.352.05 4.134 7.257z"/><path d="M64.771 139.589l-8.352-.05-4.133-7.257 4.218-7.208 8.352.05 4.134 7.257z"/><path d="M64.765 125.702l-8.351-.049-4.134-7.257 4.219-7.209 8.352.05 4.133 7.257z"/><path d="M52.696 132.676l-8.352-.049-4.133-7.257 4.218-7.209 8.352.05 4.133 7.257z"/></g><g transform="matrix(2.8 0 0 2.8 -90 -305)"><path fill="#c12766" d="M64.266 138.661l-7.296-.022-3.628-6.33L57.009 126l7.297.023 3.628 6.33z"/><path fill="#3e489f" d="M52.127 145.626l-7.296-.023-3.628-6.33 3.667-6.307 7.296.022 3.629 6.33z"/><path fill="#714099" d="M64.19 152.624l-7.295-.023-3.629-6.33 3.668-6.307 7.296.023 3.629 6.33z"/><path fill="#78932c" d="M52.191 131.749l-7.296-.023-3.629-6.33 3.668-6.307 7.296.022 3.629 6.33z"/><path fill="#cf242a" d="M64.26 124.775l-7.296-.023-3.628-6.33 3.668-6.307 7.296.022 3.628 6.33z"/><circle cx="60.564" cy="146.294" r="1.6" fill="#fff"/><path fill="none" stroke="#fff" stroke-width=".524" d="M61.748 117.71l-14.267 8.174M48.514 124.197l.048 16.442M47.525 138.715l14.136 8.397M60.59 117.133l.048 16.442M60.657 131.093l.048 16.442M61.766 131.708l-14.267 8.174M47.564 124.84l14.136 8.398"/><circle cx="48.334" cy="139.242" r="1.6" fill="#fff"/><circle cx="60.901" cy="132.486" r="1.6" fill="#fff"/><circle cx="48.563" cy="125.419" r="1.6" fill="#fff"/><circle cx="60.632" cy="118.445" r="1.6" fill="#fff"/></g></svg>