<svg xmlns="http://www.w3.org/2000/svg" width="334.667" height="266.667" preserveAspectRatio="xMidYMid meet" version="1.0" viewBox="0 0 251 200"><g fill="#000" stroke="none"><path d="M993 1670 l-358 -311 -309 -552 c-169 -304 -310 -558 -313 -564 -4 -10 55 -13 275 -13 l279 0 363 803 c200 441 378 835 397 875 18 39 31 72 29 72 -2 0 -165 -140 -363 -310z" transform="translate(0.000000,200.000000) scale(0.100000,-0.100000)"/><path d="M1462 1819 c-5 -13 -76 -212 -157 -441 l-147 -417 300 -378 c192 -241 297 -380 289 -384 -7 -3 -260 -48 -564 -100 l-552 -94 931 -3 c512 -1 933 0 936 2 2 3 -228 417 -512 922 -450 800 -517 914 -524 893z" transform="translate(0.000000,200.000000) scale(0.100000,-0.100000)"/></g></svg>