<svg xmlns="http://www.w3.org/2000/svg" xmlns:svg="http://www.w3.org/2000/svg" id="Layer_1" width="35.251" height="35.399" x="0" y="0" version="1.1" viewBox="-12.06 13.62 35.251 35.399" xml:space="preserve"><metadata id="metadata32"/><defs id="defs30"><defs id="defs9"><filter id="Adobe_OpacityMaskFilter" width="56.2" height="71.5" x="555.7" y="41.4" filterUnits="userSpaceOnUse"><feColorMatrix id="feColorMatrix6" type="matrix" values="1 0 0 0 0 0 1 0 0 0 0 0 1 0 0 0 0 0 1 0"/></filter></defs><mask id="b_1_" width="56.2" height="71.5" x="555.7" y="41.4" maskUnits="userSpaceOnUse"><g id="g12" class="st549" filter="url(#Adobe_OpacityMaskFilter)"><path id="a_1_" fill="#fff" d="M 306.3,12.4 H 0.8 V 133.3 H 611.9 V 12.4 Z" class="st550"/></g></mask></defs><style id="style2" type="text/css">.st548{fill:#151f34}.st549{filter:url(#Adobe_OpacityMaskFilter)}.st550{fill:#fff}.st552{fill:#348540}.st553{fill:#7dbc42}</style><g id="g859" transform="matrix(1.7707274,0,0,1.7707274,0.85183359,-43.009452)"><path id="path19" fill="#151f34" stroke-width=".166" d="m 4.7276613,37.955902 c -0.680236,0.165912 -1.3770631,0.232276 -2.0738902,0.232276 -0.7134182,0 -1.4102454,-0.08296 -2.07389025,-0.232276 0.54750705,-0.879329 1.26092525,-1.659112 2.07389025,-2.306166 0.812965,0.647054 1.5263832,1.426837 2.0738902,2.306166 z m 6.2548527,-5.076883 c -0.862738,-0.232276 -1.7420675,-0.348414 -2.6213969,-0.331822 -2.0241169,0 -4.0150516,0.59728 -5.707346,1.725476 -1.69229445,-1.128196 -3.666638,-1.742068 -5.707346,-1.725476 -0.9125117,0 -1.7918411,0.116137 -2.6213972,0.331822 -0.3484136,0.08296 -0.6968272,0.199093 -1.0286496,0.331822 -0.016591,0.01659 -0.033182,0.03318 -0.016591,0.04977 0,0 0,0 0,0 0.1493201,0.315231 0.3152313,0.630462 0.4811425,0.929103 0.016591,0.01659 0.033182,0.01659 0.049773,0.01659 1.0120584,-0.365005 2.0738902,-0.547507 3.135722,-0.547507 1.7420678,0 3.3679978,0.481142 4.761652,1.327289 -0.87932942,0.746601 -1.64252103,1.642522 -2.2232103,2.637989 -0.31523132,0.514325 -0.5640982,1.061832 -0.7797827,1.62593 -0.4313692,1.144787 -0.6470538,2.37253 -0.6470538,3.583682 0,2.920038 1.22774303,5.558026 3.1854954,7.432823 0.1493201,0.14932 0.3152313,0.29864 0.4811426,0.431369 0.1327289,0.116138 0.2654579,0.215685 0.3981869,0.315231 0.1659112,0.132729 0.3484136,0.265458 0.5309159,0.381596 0.016591,0.01659 0.033182,0.01659 0.049773,0 C 2.8860461,51.278568 3.0519573,51.145839 3.2344597,51.01311 3.3671886,50.91356 3.4999176,50.814017 3.6326466,50.697879 3.7985578,50.56515 3.964469,50.41583 4.1137891,50.26651 c 1.9577524,-1.874797 3.1689043,-4.512785 3.1689043,-7.432823 0,-1.460019 -0.3152313,-2.903446 -0.9125117,-4.230736 C 6.3038179,38.470227 6.2374534,38.320907 6.171089,38.188178 6.0715422,37.989085 5.9554044,37.789991 5.8392665,37.607489 5.2419861,36.612021 4.4953856,35.716101 3.6160562,34.9695 c 1.4434276,-0.862738 3.0859487,-1.327289 4.761652,-1.327289 1.0618318,0 2.1402548,0.182502 3.1357218,0.547507 0.01659,0 0.03318,0 0.04977,-0.01659 0.182502,-0.29864 0.331822,-0.613871 0.481142,-0.912511 0.01659,-0.01659 0,-0.04977 -0.01659,-0.04977 0,0 0,0 0,0 -0.348414,-0.132729 -0.696827,-0.248866 -1.045241,-0.331822 z" class="st548"/><path id="path21" fill="#348540" stroke-width=".166" d="m 6.1379067,42.850283 c 0,2.438895 -0.9456939,4.662106 -2.5052594,6.304627 -0.2820491,-0.895921 -0.4147781,-1.825024 -0.4147781,-2.754127 0,-2.438895 0.945694,-4.662105 2.5052595,-6.304626 0.2654579,0.862738 0.414778,1.791841 0.414778,2.754126" class="st552"/><path id="path23" fill="#7dbc42" stroke-width=".166" d="m 2.1062641,46.384192 c 0,0.962285 -0.1493201,1.891388 -0.4147781,2.754127 -1.60933881,-1.708886 -2.5052594,-3.965279 -2.5052594,-6.304627 0,-0.962285 0.1493201,-1.891388 0.43136917,-2.754126 1.59274773,1.708885 2.48866833,3.965278 2.48866833,6.304626" class="st553"/></g></svg>