<svg xmlns="http://www.w3.org/2000/svg" xmlns:svg="http://www.w3.org/2000/svg" id="svg18" width="32" height="32" version="1.1" viewBox="0 0 32 32"><metadata id="metadata24"/><g id="g130" transform="matrix(0.49396251,0,0,0.49396251,0.19319971,0.19319971)"><path id="path92" fill="#8dc63f" d="M 1.156,50 H 27.53 L 42.655,64 V 50 H 62.842 V 0 H 1.156 Z m 9.937,-38.312 h 11.563 l 22.25,20.75 v -20.75 h 7.375 V 38.5 H 41.094 L 18.47,17.375 V 38.5 h -7.375 z"/><path id="path94" fill="#fff" d="M 18.47,17.375 41.094,38.5 H 52.28 V 11.687 h -7.374 v 20.75 L 22.656,11.687 H 11.094 V 38.5 h 7.375 z"/><path id="path96" fill="#27aae1" d="M 1.156,0 H 62.843 V 50 H 1.156 Z"/><path id="path98" fill="#34a574" d="M 32,0 H 62.844 V 25 H 32 Z"/><path id="path100" fill="#8dc63f" d="M 32,25 H 62.844 V 50 H 32 Z"/><path id="path102" fill="#27aae1" d="M 1.156,0 H 32 V 25 H 1.156 Z"/><g id="g108" fill="#375c93"><path id="path104" d="M 1.156,25 H 32 V 50 H 1.156 Z"/><path id="path106" d="M 32,50 32.154,54.303 27.53,50 Z"/></g><path id="path110" fill="#fff" d="m 16.367,15.83 26.758,24.984 h 13.23 V 9.102 h -8.722 v 24.54 L 21.32,9.102 H 7.644 v 31.71 h 8.722 z"/></g></svg>